<?xml version="1.0" encoding="UTF-8"?>
<svg viewBox="0 0 744.09447 1052.362179" xmlns="http://www.w3.org/2000/svg">
 <g transform="matrix(2.2546 0 0 2.2546 -2024.7 -46.71)">
  <path d="m956.65 53.73c70.244-63.948 219.65-8.9297 214.5 0l13.508 12.048c21.929 19.559 30.204 100.85 4.2857 143.13-11.968 19.523 2.3443 20.722-17.794 27.763-65.138 22.774-137.07 20.258-214.5 1.4286-20.729-5.0409-6.0395-9.1292-17.08-29.191-26.255-47.711-19.854-100.43 1.4286-143.13 2.9368-5.8925 10.782-7.6163 15.651-12.048z" fill="#955e27"/>
  <path d="m996.39 80.202 65.371-4.2857 66.085 3.5714c21.922 1.1848 38.047 15.164 38.915 38.401l0.823 22.046c32.378 3.3952 25.592 42.708-5.5272 43-4.4912 22.815-21.542 36.411-43.496 36.554l-110.03 0.71429c-21.523 0.13972-41.547-10.54-43.741-33.689-0.0676-0.71264 0.49007-2.3019-0.20702-2.1379-27.672 6.509-39.734-35.471-7.599-39.406 1.1154-0.13657-0.43488-2.2008-0.63866-3.2968l0.41423-23.784c0.40491-23.249 17.722-36.25 39.629-37.687z" fill="#f2cdc5" stroke="#000"/>
  <path transform="translate(701.05 -58.589)" d="m304.29 215.58c0 9.665-5.7563 17.5-12.857 17.5s-12.857-7.835-12.857-17.5 5.7563-17.5 12.857-17.5 12.857 7.835 12.857 17.5z" stroke="#000" stroke-linecap="round" stroke-linejoin="round" stroke-width="3.938"/>
  <path transform="translate(838.19 -58.589)" d="m304.29 215.58c0 9.665-5.7563 17.5-12.857 17.5s-12.857-7.835-12.857-17.5 5.7563-17.5 12.857-17.5 12.857 7.835 12.857 17.5z" stroke="#000" stroke-linecap="round" stroke-linejoin="round" stroke-width="3.938"/>
  <path d="m973.9 115.2c11.667-1.4285 19.388 5.0329 27.857 10-3.1174-10.18-12.337-15.07-28.153-15.88z" fill="#bd8868"/>
  <path d="m1148.9 115.2c-11.667-1.4285-19.388 5.0329-27.857 10 3.1173-10.18 12.337-15.07 28.153-15.88z" fill="#bd8868"/>
  <path d="m1009.6 213.77c27.988-57.482 76.865-55.373 110.13 2.1428 9.4155 16.281 45.953-42.228 47.972-57.321 1.5627-11.678-0.299 89.462-35.115 83.036-44.706 14.819-90.585 16.147-137.98 0-25.109-0.19751-43.162-89.989-35.059-73.331 3.9091 8.0366 38.113 70.008 50.059 45.474z" fill="#c88844"/>
  <path d="m1091.2 212.34c0 9.0732-11.187 10.714-25.868 10.714s-27.296-1.641-27.296-10.714 11.901-16.429 26.582-16.429 26.582 7.3553 26.582 16.429z" fill="#f2cdc5"/>
  <path d="m1017.3 248.27c-26.27 12.672-49.663 37.146-65.714 63.214 0 0-15.9-2.5774-21.5 5.4184-5.3706 7.668-5.4887 16.625-0.97427 24.827 5.2187 9.4808 17.039 14.502 24.495 21.219 6.4872 5.845 23.694-1.4645 23.694-1.4645l1.4286-26.429 25.714-22.857 4.2857 21.429 112.14 2.1428 5-24.286 25 22.857s-1.7168 14.911 4.2857 21.429c4.2704 4.6371 9.785 0.78156 16.072-0.35714 15.831-2.8676 33.928-26.429 33.928-26.429 1.1206-7.3949 5.0673-6.8675-2.8571-16.071-6.9048-1.9332-13.81-4.3116-20.714-0.71429-14.389-29.579-38.788-53.697-66.071-62.857-32.738 4.7272-65.476 6.5029-98.214-1.0714z" fill="#f2cdc5" stroke="#000"/>
  <path d="m1006.9 254.78-2.5197 57.769 4.7926 21.592c37.039 14.544 74.078 12.657 111.12 3.0305l5.4756-25.696-0.6774-57.793-9.145-4.3503-21.412 1.3991c-9.1302 20.432-19.667 40.038-30.81 49.064-12.444-9.7106-21.393-31.779-25.759-50.24l-22.23-1.2444z" fill="#8080ff" stroke="#000"/>
  <path d="m1018.3 248.53 4.5456 27.274 9.344-8.0812c3.1899 18.052 17.994 28.844 31.567 40.406 16.145-12.353 26.474-18.19 34.598-39.901l10.354 9.849 8.5863-28.789-22.476 2.2728c-7.7965 16.615-17.234 37.651-31.062 48.235-12.871-9.5146-21.474-32.239-26.264-50.508z" fill="none" stroke="#000"/>
  <path d="m1016 291.21 0.2525 16.415 19.446 0.75761v-15.405z" fill="none" stroke="#000"/>
  <path d="m1115.5 291.21-0.2525 16.415-19.445 0.75761v-15.405z" fill="none" stroke="#000"/>
  <path transform="translate(361.63 -44.447)" d="m635.39 209.89c0 2.7895-1.3568 5.0508-3.0305 5.0508s-3.0305-2.2613-3.0305-5.0508 1.3568-5.0508 3.0305-5.0508 3.0305 2.2613 3.0305 5.0508z" fill="#f2cdc5" fill-rule="evenodd"/>
  <path transform="translate(493.96 -44.447)" d="m635.39 209.89c0 2.7895-1.3568 5.0508-3.0305 5.0508s-3.0305-2.2613-3.0305-5.0508 1.3568-5.0508 3.0305-5.0508 3.0305 2.2613 3.0305 5.0508z" fill="#f2cdc5" fill-rule="evenodd"/>
  <path d="m1008.6 331.11c-2.5282 18.348-6.6088 35.144-6.0609 56.569l7.0711 32.325s-3.3972 4.1835-3.0305 6.566c0.3807 2.4737 5.0508 5.5558 5.0508 5.5558-9.6733 12.129-22.696 20.909-36.366 29.042-3.925 3.9326-8.2297 9.5371-11.364 14.395-0.12533 4.2227 0.4204 8.2217 4.2932 11.112h35.355l21.213-19.193 12.122 8.0812c9.0694 0.27092 17.194-2.2918 24.244-8.0812-1.6504-13.879-6.1337-27.192-11.112-40.406 0 0 2.3306-5.1125 2.2728-7.5762-0.086-3.6808-3.283-10.607-3.283-10.607 0.3432-12.671 6.2226-20.596 15.984-27.213 11.309 5.3335 19.159 18.949 17.173 29.8 0 0-1.4081 4.7682-1.5892 7.7674-0.1985 3.2867 2.0076 7.8847 2.0076 7.8847-5.1879 12.33-9.2651 27.097-11.099 40.098 6.5327 8.9012 17.06 10.273 24.244 11.364 2.8101-3.637 6.0367-4.5257 12.879-6.8185 7.388 4.0476 14.132 8.8681 18.183 16.92h38.386c4.0648-5.6676 3.5713-8.4049 3.0304-11.112l-12.879-15.91c-1.0452-1.2911-23.755-11.095-33.588-25.506 0 0 2.8079-3.8131 3.0305-6.0609 0.3783-3.8205-3.0305-11.112-3.0305-11.112 5.4823-6.3028 7.2756-16.295 8.0812-27.274 1.7591-27.153-2.5053-44.449-8.0812-59.599-10.396 15.979-100.05 15.666-113.14-1.0102z" stroke="#000"/>
  <path d="m1008.5 331.49-3.3929 21.607c40.173 16.621 82.272 14.692 123.39 4.2857-0.083 0.0595-3.8466-16.845-6.4286-25.179-12.874 12.998-93.789 17.667-113.57-0.71429z" fill="#501616" stroke="#000"/>
  <path transform="matrix(.90374 0 0 .90374 730.1 -9.3311)" d="m397.78 401.92c0 9.2212-12.095 16.696-27.015 16.696s-27.015-7.4752-27.015-16.696 12.095-16.696 27.015-16.696 27.015 7.4752 27.015 16.696z" fill="#ff0" fill-rule="evenodd"/>
  <path d="m925.92 335.06s16.979-10.878 25.714-8.5714c12.389 3.2706 25.714 28.571 25.714 28.571" fill="none" stroke="#000"/>
  <path d="m1204.1 329.34c-7.3783-6.8343-15.494-11.209-25.714-8.5714-13.585 8.6122-22.602 18.055-25.714 28.571" fill="none" stroke="#000"/>
  <text x="1041.3861" y="357.96292" font-family="Arial" font-size="12.707" font-weight="bold" letter-spacing="0" word-spacing="0">
   <tspan x="1041.3861" y="357.96292">CHUCK</tspan>
  </text>
 </g>
</svg>
